<svg width="521" height="139" viewBox="0 0 521 139" fill="none" xmlns="http://www.w3.org/2000/svg">
<g clip-path="url(#clip0_1350_2526)">
<path d="M44.9528 113.303H31.9606L22.2743 93.5946H11.7075V113.303H0.00634766V56.9834H24.5355C29.804 56.9834 34.3113 58.635 38.05 61.9309C41.7887 65.2267 43.6618 69.698 43.6618 75.3225C43.6618 79.1837 42.7215 82.5242 40.841 85.3364C38.9604 88.1486 36.453 90.2839 33.3337 91.7346L44.9528 113.303ZM11.7075 67.3693V83.4616H23.3265C25.8563 83.4616 27.901 82.725 29.4607 81.252C31.0204 79.7789 31.8039 77.8594 31.8039 75.501C31.8039 73.0905 31.0204 71.1339 29.4607 69.631C27.901 68.1282 25.8563 67.3768 23.3265 67.3768H11.7075V67.3693Z" fill="#25214F"/>
<path d="M76.9889 114.106C68.922 114.106 62.1013 111.294 56.5343 105.662C50.9673 100.03 48.1838 93.1931 48.1838 85.1432C48.1838 77.1008 50.9673 70.2562 56.5343 64.6243C62.1013 58.9924 68.922 56.1802 76.9889 56.1802C85.0036 56.1802 91.7944 58.9924 97.3614 64.6243C102.928 70.2562 105.712 77.0934 105.712 85.1432C105.712 93.1856 102.928 100.03 97.3614 105.662C91.8019 111.294 85.0036 114.106 76.9889 114.106ZM76.9068 102.523C81.6977 102.523 85.7125 100.849 88.9736 97.4933C92.2273 94.1454 93.8541 90.0237 93.8541 85.1432C93.8541 80.2627 92.2273 76.1485 88.9736 72.7932C85.72 69.4453 81.6977 67.7639 76.9068 67.7639C72.1756 67.7639 68.1757 69.4379 64.9221 72.7932C61.6685 76.1485 60.0416 80.2627 60.0416 85.1432C60.0416 90.0237 61.6685 94.1379 64.9221 97.4933C68.1832 100.849 72.1756 102.523 76.9068 102.523Z" fill="#25214F"/>
<path d="M124.443 113.303V90.9389L104.272 56.9912H118.07L130.42 79.6825L142.689 56.9912H156.487L136.316 90.9389V113.303H124.443Z" fill="#25214F"/>
<path d="M150.987 113.303L173.74 56.9834H186.247L209.247 113.303H196.172L192.538 104.047H167.613L164.061 113.303H150.987ZM171.404 93.2747H188.755L180.121 70.5908H179.956L171.404 93.2747Z" fill="#25214F"/>
<path d="M214.821 113.303V56.9834H226.687V102.359H254.447V113.303H214.821Z" fill="#25214F"/>
<path d="M337.168 84.34C342.063 87.0778 344.511 91.3408 344.511 97.129C344.511 102.114 342.735 106.057 339.183 108.958C335.631 111.852 331.056 113.303 325.467 113.303H301.415V56.9839H324.094C329.743 56.9839 334.302 58.4198 337.772 61.2915C341.242 64.1633 342.981 68.0915 342.981 73.0761C342.981 77.9046 341.041 81.6616 337.168 84.34ZM313.124 67.1243V80.4787H324.101C326.198 80.4787 327.944 79.9579 329.347 78.9089C330.743 77.8599 331.444 76.1636 331.444 73.7978C331.444 71.4394 330.743 69.7357 329.347 68.6867C327.944 67.6377 326.198 67.1169 324.101 67.1169H313.124V67.1243ZM325.146 103.17C327.243 103.17 329.049 102.62 330.556 101.518C332.064 100.417 332.817 98.6913 332.817 96.3255C332.817 94.0191 332.064 92.3154 330.556 91.2143C329.049 90.1132 327.25 89.5627 325.146 89.5627H313.124V103.155H325.146V103.17Z" fill="#25214F"/>
<path d="M345.399 113.303L368.152 56.9839H380.659L403.659 113.303H390.592L386.965 104.048H362.025L358.473 113.303H345.399ZM365.816 93.2751H383.167L374.533 70.5912H374.368L365.816 93.2751Z" fill="#25214F"/>
<path d="M409.233 113.303V56.9839H422.546L447.157 94.3167V56.9913H459.022V113.31H445.627L421.098 76.0595V113.31H409.233V113.303Z" fill="#25214F"/>
<path d="M468.784 113.303V56.9839H480.649V79.5115H488.798L504.857 56.9839H519.387L499.29 84.9798L520.349 113.296H505.499L488.955 90.7679H480.642V113.296H468.784V113.303Z" fill="#25214F"/>
<path d="M267.208 0.478516C267.208 0.478516 255.514 7.39751 247.357 16.8684C239.193 26.3392 231.403 38.8455 231.403 38.8455C231.403 38.8455 243.484 44.284 250.447 51.6791C258.484 59.9373 267.215 71.5136 267.215 80.8654C267.208 90.2172 267.208 0.478516 267.208 0.478516Z" fill="#D9AC0A"/>
<path d="M269.416 0.478516C269.416 0.478516 281.11 7.39751 289.266 16.8684C297.423 26.3392 305.221 38.8529 305.221 38.8529C305.221 38.8529 293.14 44.2914 286.177 51.6865C278.14 59.9447 269.409 71.521 269.409 80.8728C269.409 90.2172 269.416 0.478516 269.416 0.478516Z" fill="#D9AC0A"/>
<path d="M304.841 119.574V128.919H236.395V119.574H233.835V128.919V129.774V138.999H307.4V129.774V128.919V119.574H304.841Z" fill="#D9AC0B"/>
</g>
<defs>
<clipPath id="clip0_1350_2526">
<rect width="520.343" height="138.521" fill="white" transform="translate(0.00634766 0.478516)"/>
</clipPath>
</defs>
</svg>
